Coordinates
version=1
nRows=13
nColumns=40
inDegrees=yes

Units are S.I. units (second, meters, Newtons, ...)
Angles are in degrees.

endheader
time	pelvis_tilt	pelvis_list	pelvis_rotation	pelvis_tx	pelvis_ty	pelvis_tz	hip_flexion_r	hip_adduction_r	hip_rotation_r	knee_angle_r	knee_angle_r_beta	ankle_angle_r	subtalar_angle_r	mtp_angle_r	hip_flexion_l	hip_adduction_l	hip_rotation_l	knee_angle_l	knee_angle_l_beta	ankle_angle_l	subtalar_angle_l	mtp_angle_l	lumbar_extension	lumbar_bending	lumbar_rotation	arm_flex_r	arm_add_r	arm_rot_r	elbow_flex_r	pro_sup_r	wrist_flex_r	wrist_dev_r	arm_flex_l	arm_add_l	arm_rot_l	elbow_flex_l	pro_sup_l	wrist_flex_l	wrist_dev_l
     22.89500000	     -4.02370358	     -3.09807666	      8.40616989	      0.80834552	      0.93157414	      0.39743257	      2.52449328	      3.63354253	    -21.55798728	      8.12117880	      8.12117880	     12.43405349	      6.15135791	     -5.88359406	     31.33999795	     -8.41491476	     -4.35191226	     25.16043356	     25.16043356	     10.18397334	    -10.49654736	     11.15634904	    -10.22424346	      7.34713773	      4.70296168	     23.85937961	    -24.23266771	     -2.15886133	     61.33534237	     45.20772338	      0.00000000	      0.00000000	      4.52917285	    -24.75799434	    -18.38528842	     46.66633868	     47.36264302	      0.00000000	      0.00000000
     22.90850000	     -3.98321310	     -3.32364375	      8.24612359	      0.80843782	      0.93085728	      0.39637684	      2.14747781	      3.85012163	    -21.44511709	      8.17058444	      8.17058444	     12.75285967	      6.26413342	     -5.96665801	     30.83604996	     -8.43608774	     -5.03336494	     25.19147640	     25.19147640	      9.90323163	    -10.76423242	     11.29952411	    -10.06017252	      7.57496906	      4.72381261	     23.19479102	    -24.03036012	     -2.04350085	     61.06795608	     45.20965335	      0.00000000	      0.00000000	      4.19402298	    -24.74961527	    -18.48110296	     46.55386660	     47.36621805	      0.00000000	      0.00000000
     22.92200000	     -3.81316305	     -3.32643591	      8.00177870	      0.80896074	      0.93044712	      0.39515115	      1.52581783	      3.83090787	    -21.31271813	      8.15615755	      8.15615755	     13.11820446	      6.58850678	     -5.75503350	     29.83932984	     -8.25839746	     -5.79284941	     24.92813342	     24.92813342	      9.57017671	    -10.76329874	     11.21298316	     -9.99716539	      7.55769562	      4.85298651	     22.30793990	    -23.84283806	     -1.79627607	     60.36540269	     45.22325886	      0.00000000	      0.00000000	      3.77830045	    -24.77614114	    -18.99485913	     46.62024172	     47.40667592	      0.00000000	      0.00000000
     22.93550000	     -3.74627039	     -3.51568327	      7.79772395	      0.80940613	      0.92961163	      0.39385345	      1.15357985	      3.95822794	    -21.12685602	      8.34574929	      8.34574929	     13.49113653	      6.66564536	     -5.77250288	     29.11531561	     -8.20838273	     -6.21588371	     24.92208166	     24.92208166	      9.27203759	    -10.88504871	     11.23935336	     -9.82674671	      7.72826040	      4.83924961	     21.34695782	    -23.62834198	     -1.64658354	     59.94152874	     45.22832847	      0.00000000	      0.00000000	      3.31030133	    -24.85937311	    -19.23342158	     46.55397827	     47.42204976	      0.00000000	      0.00000000
     22.94900000	     -3.68365109	     -3.54784503	      7.54637619	      0.80987045	      0.92891844	      0.39246969	      0.85425299	      3.87262685	    -20.86619425	      8.72867777	      8.72867777	     14.00632891	      6.63137037	     -5.53145144	     28.16691719	     -8.00077000	     -6.65725287	     24.59241601	     24.59241601	      8.79210270	    -10.90331402	     10.99669082	     -9.75698251	      7.68742718	      4.84714181	     20.40357779	    -23.47385680	     -1.45632507	     59.29060172	     45.24176489	      0.00000000	      0.00000000	      2.92056271	    -24.88946303	    -19.80911504	     46.86364574	     47.47055037	      0.00000000	      0.00000000
     22.96250000	     -3.65652412	     -3.78351843	      7.35778697	      0.81029802	      0.92796327	      0.39095518	      0.54814496	      4.02229822	    -20.66818263	      8.94649001	      8.94649001	     14.37757877	      6.64539928	     -5.62108873	     27.52025910	     -7.98912906	     -6.78135689	     24.61162670	     24.61162670	      8.59244898	    -10.96793076	     11.02602431	     -9.56798341	      7.90996237	      4.66944673	     19.44639193	    -23.29615687	     -1.35530379	     58.94197882	     45.24536785	      0.00000000	      0.00000000	      2.57527751	    -24.98802747	    -19.94901679	     46.80842237	     47.47895567	      0.00000000	      0.00000000
     22.97600000	     -3.64347801	     -3.68247305	      7.08255262	      0.81066729	      0.92735072	      0.38925512	      0.54996587	      3.67145249	    -20.22460004	      9.85336583	      9.85336583	     15.04178536	      6.12832467	     -5.04977315	     26.53446859	     -7.59027684	     -6.83153584	     24.05108304	     24.05108304	      7.96206729	    -11.25476866	     10.26118654	     -9.53030292	      7.65133047	      4.77738725	     18.20669947	    -23.14674422	     -1.22966870	     57.96425859	     45.27254928	      0.00000000	      0.00000000	      2.09073458	    -24.96103488	    -20.90515223	     47.60328116	     47.56311150	      0.00000000	      0.00000000
     22.98950000	     -3.61471608	     -3.83793474	      6.94479060	      0.81110450	      0.92670100	      0.38749066	      0.28738949	      3.69994079	    -20.08596158	     10.16828898	     10.16828898	     15.28116032	      6.02044250	     -4.99356849	     25.95962152	     -7.52187006	     -6.67809136	     24.09563159	     24.09563159	      7.90070003	    -11.35906512	     10.07142207	     -9.44901577	      7.72960651	      4.53062374	     16.97954478	    -22.92786049	     -1.13327295	     57.46205332	     45.28062363	      0.00000000	      0.00000000	      1.66016382	    -25.17341966	    -21.16965066	     47.59223908	     47.58172387	      0.00000000	      0.00000000
     23.00300000	     -3.66357344	     -3.86124783	      6.75976957	      0.81128209	      0.92619162	      0.38551517	      0.40517941	      3.47195765	    -19.61894533	     11.14272878	     11.14272878	     16.39378391	      5.52611221	     -2.77029149	     25.23616946	     -7.22506674	     -6.29759026	     23.54338972	     23.54338972	      6.46147386	    -12.44186306	      7.14939342	     -9.37513119	      7.62293382	      3.93231816	     16.43159433	    -22.25711802	     -1.46305540	     55.65955678	     45.36766414	      0.00000000	      0.00000000	      0.66917103	    -24.88578785	    -23.61120443	     49.15939186	     47.76785711	      0.00000000	      0.00000000
     23.01650000	     -3.70577033	     -3.83878904	      6.62175761	      0.81141022	      0.92589664	      0.38339748	      0.40815844	      3.19943507	    -19.44602298	     11.83154398	     11.83154398	     16.59993369	      5.23449612	     -2.82473714	     24.80440515	     -7.01780755	     -6.12917454	     23.56846478	     23.56846478	      6.55393978	    -12.64819562	      7.04650737	     -9.34270633	      7.50724395	      3.81327099	     15.08387882	    -22.18986017	     -1.31779070	     54.85782547	     45.38446002	      0.00000000	      0.00000000	      0.60612292	    -25.01764302	    -23.80324325	     49.25420290	     47.77877697	      0.00000000	      0.00000000
     23.03000000	     -3.73020634	     -3.83892116	      6.52802633	      0.81151578	      0.92580324	      0.38119473	      0.36564145	      2.96797253	    -19.31786514	     12.45528497	     12.45528497	     16.75425878	      4.89285301	     -2.82446721	     24.46200227	     -6.85870869	     -5.90934944	     23.70394432	     23.70394432	      6.73625371	    -12.94129841	      6.92104054	     -9.36403870	      7.37342663	      3.60334668	     13.64686684	    -22.08671890	     -1.27536312	     54.00678288	     45.40611429	      0.00000000	      0.00000000	      0.54719871	    -25.23300103	    -23.97499201	     49.34445357	     47.79067156	      0.00000000	      0.00000000
     23.04350000	     -3.82977434	     -3.79063591	      6.42972968	      0.81140636	      0.92583676	      0.37873817	      0.61377098	      2.59050130	    -19.04198166	     13.46724996	     13.46724996	     16.95509860	      4.36755535	     -2.68082892	     24.19722214	     -6.62650939	     -5.64283265	     23.77881117	     23.77881117	      6.87200301	    -13.39178884	      6.81599691	     -9.25835639	      7.29009638	      3.60341124	     12.28240215	    -21.98258080	     -1.48799312	     52.58885252	     45.46010154	      0.00000000	      0.00000000	      0.79541389	    -25.11279888	    -24.08388423	     49.63431075	     47.79558861	      0.00000000	      0.00000000
     23.05700000	     -3.88217270	     -3.73768752	      6.36693208	      0.81138764	      0.92611074	      0.37623146	      0.73990391	      2.22811379	    -18.89330925	     14.35490612	     14.35490612	     17.10850814	      3.98971390	     -2.44478154	     23.92179491	     -6.44031622	     -5.49956452	     23.90820503	     23.90820503	      7.13617812	    -13.66252414	      6.71164208	     -9.23823382	      7.18345538	      3.50214509	     10.95170877	    -21.76142597	     -1.90925331	     50.99852302	     45.52933851	      0.00000000	      0.00000000	      1.01881461	    -25.19141040	    -24.13223516	     49.78023485	     47.79205242	      0.00000000	      0.00000000
